<?xml version="1.0" standalone="no"?>
<!DOCTYPE svg PUBLIC "-//W3C//DTD SVG 20010904//EN"
 "http://www.w3.org/TR/2001/REC-SVG-20010904/DTD/svg10.dtd">
<svg version="1.0" xmlns="http://www.w3.org/2000/svg"
 width="1366.000000pt" height="1366.000000pt" viewBox="0 0 1366.000000 1366.000000"
 preserveAspectRatio="xMidYMid meet">

<g transform="translate(0.000000,1366.000000) scale(0.100000,-0.100000)"
fill="#000000" stroke="none">
<path d="M3680 10200 l0 -100 -460 0 -460 0 0 -2365 0 -2365 400 0 c349 0 400
-2 400 -15 0 -13 -51 -15 -400 -15 l-400 0 0 -25 0 -25 426 0 c336 0 425 -3
422 -12 -4 -10 -100 -14 -426 -16 l-422 -2 0 -95 0 -95 485 0 c381 0 485 -3
485 -12 0 -10 -102 -12 -485 -10 l-485 2 0 -30 0 -30 510 0 c447 0 510 -2 510
-15 0 -13 -63 -15 -510 -15 -503 0 -510 0 -510 -20 0 -20 7 -20 519 -20 286 0
526 -3 535 -6 8 -3 12 -12 9 -20 -4 -12 -87 -14 -534 -14 -522 0 -529 0 -529
-20 0 -20 8 -20 552 -22 517 -3 553 -4 556 -20 3 -17 -28 -18 -552 -18 -364 0
-556 -3 -556 -10 0 -7 198 -10 575 -10 l575 0 -20 38 c-41 73 -95 168 -111
192 -9 14 -30 50 -46 80 -17 30 -49 89 -73 130 -23 41 -59 104 -80 140 -20 36
-54 94 -75 130 -21 36 -55 95 -77 133 -21 37 -56 99 -78 137 -22 39 -57 100
-78 138 -22 37 -56 96 -77 132 -21 36 -55 95 -77 133 -21 37 -56 99 -78 137
-22 39 -57 100 -78 138 -37 63 -84 145 -128 219 -19 32 -19 32 1 47 11 9 42
27 69 41 l50 25 358 0 c197 0 358 -3 358 -7 0 -5 -156 -7 -347 -5 -191 1 -353
0 -361 -3 -11 -4 -9 -11 6 -32 11 -16 30 -48 42 -73 12 -25 26 -47 30 -50 4
-3 24 -36 44 -75 21 -38 57 -104 81 -145 24 -41 60 -104 80 -140 20 -36 56
-99 80 -140 24 -41 58 -100 75 -130 17 -30 51 -89 74 -130 24 -41 61 -106 83
-145 22 -38 66 -115 98 -170 32 -55 128 -221 213 -370 85 -148 234 -407 330
-575 96 -168 193 -336 215 -375 79 -139 115 -202 192 -335 83 -143 134 -234
195 -341 20 -37 44 -77 54 -90 25 -37 20 -47 -45 -80 -35 -17 -63 -39 -66 -50
-5 -19 -26 -19 -994 -19 l-989 0 0 -25 0 -25 4070 0 4070 0 0 3530 0 3530
-3610 0 -3610 0 0 -100z m5274 -68 c53 -90 95 -163 143 -247 77 -133 92 -160
128 -225 20 -36 52 -92 72 -125 20 -33 54 -91 76 -130 100 -176 125 -220 162
-285 22 -39 69 -121 104 -183 35 -61 79 -137 96 -167 18 -30 52 -89 75 -130
24 -41 58 -100 75 -130 18 -30 50 -86 72 -125 64 -111 123 -216 158 -275 49
-85 108 -188 152 -265 88 -154 127 -222 158 -275 49 -85 108 -188 152 -265 22
-38 59 -104 83 -145 24 -41 61 -106 83 -145 22 -38 53 -91 69 -116 15 -25 28
-50 28 -55 0 -5 -24 -24 -53 -42 l-53 -32 -401 0 -401 0 -7 40 c-4 22 -11 40
-16 40 -4 0 -6 7 -3 15 4 8 2 21 -4 28 -6 7 -25 71 -43 142 -18 72 -35 132
-38 135 -7 5 -49 162 -58 213 -3 15 -10 27 -15 27 -5 0 -6 5 -3 10 4 6 3 16
-3 23 -5 7 -21 62 -37 122 -15 61 -32 116 -37 123 -6 7 -8 15 -5 19 4 3 3 11
-2 17 -5 6 -19 55 -32 109 -12 53 -26 97 -30 97 -4 0 -5 9 -2 20 3 11 1 20 -4
20 -5 0 -22 54 -38 120 l-29 120 -177 0 -176 0 -289 -141 c-159 -77 -338 -165
-399 -194 l-110 -53 -6 366 c-3 202 -7 419 -8 482 -2 103 -3 112 -15 91 -8
-14 -12 -30 -9 -37 2 -7 -1 -15 -8 -20 -8 -5 -10 -3 -5 7 4 8 0 5 -8 -6 -9
-11 -14 -25 -11 -33 2 -7 0 -10 -5 -7 -10 6 -55 -73 -46 -82 6 -6 -31 -83 -39
-83 -3 0 4 18 15 40 11 22 18 40 16 40 -9 0 -68 -111 -70 -133 -4 -32 -35 -89
-46 -82 -10 6 -33 -31 -26 -43 2 -4 -5 -23 -16 -42 -10 -19 -17 -26 -14 -15 6
20 6 20 -9 1 -17 -22 -20 -40 -5 -31 6 3 7 -1 3 -10 -4 -12 -8 -13 -13 -4 -6
8 -11 5 -19 -10 -7 -12 -9 -27 -5 -33 4 -6 3 -8 -3 -5 -6 4 -14 0 -17 -9 -4
-9 -2 -13 5 -8 7 4 10 1 7 -7 -3 -8 -10 -14 -17 -14 -15 0 -73 -104 -64 -118
4 -6 1 -7 -7 -2 -10 6 -12 4 -7 -9 4 -10 3 -15 -3 -11 -5 3 -18 -12 -30 -35
-11 -22 -18 -40 -15 -40 3 0 -4 -9 -15 -20 -11 -11 -20 -26 -20 -32 0 -9 4 -8
11 2 9 13 10 13 6 0 -2 -8 -9 -14 -16 -13 -13 3 -54 -74 -46 -87 3 -5 0 -12
-6 -16 -8 -4 -9 -3 -5 4 4 7 5 12 2 12 -8 0 -77 -130 -72 -138 2 -4 -4 -23
-15 -42 -10 -19 -18 -31 -19 -27 0 5 5 18 11 30 23 45 -10 0 -41 -56 l-32 -57
27 10 c43 16 41 4 -2 -13 -35 -14 -48 -32 -167 -243 -72 -126 -164 -290 -207
-364 -77 -137 -199 -351 -317 -560 -35 -63 -82 -144 -103 -180 -21 -36 -43
-77 -50 -92 -12 -27 -29 -38 -29 -18 0 5 -81 152 -181 327 -99 175 -206 363
-236 418 -31 55 -68 120 -83 145 -15 25 -92 159 -170 299 -135 238 -146 254
-184 271 -44 20 -45 27 -2 10 l26 -10 -20 40 c-21 41 -34 54 -23 23 9 -26 -2
-13 -22 26 -10 21 -12 30 -4 25 7 -4 -3 19 -21 52 -36 65 -62 98 -36 47 22
-44 19 -56 -3 -13 -11 19 -17 38 -15 42 6 9 -65 138 -75 138 -4 0 -8 6 -8 13
0 21 -63 127 -75 127 -6 0 -9 3 -5 6 9 10 -32 86 -43 79 -6 -4 -7 1 -3 11 5
13 3 15 -7 9 -9 -6 -11 -4 -5 5 5 8 1 18 -10 27 -11 7 -16 13 -12 13 4 0 -4
23 -18 50 -14 28 -30 48 -35 45 -6 -4 -7 1 -3 11 5 13 3 15 -7 9 -8 -5 -11 -4
-6 3 4 6 -7 36 -25 67 -32 57 -51 77 -24 25 8 -16 15 -33 15 -37 -1 -4 -9 8
-19 27 -10 19 -16 41 -13 49 4 10 1 12 -8 6 -9 -5 -11 -4 -6 4 4 6 -7 36 -24
66 -33 58 -52 76 -25 25 8 -16 15 -33 15 -37 -1 -15 -42 70 -45 93 -3 28 -53
114 -66 114 -6 0 -7 5 -4 10 3 6 1 10 -6 10 -7 0 -10 3 -6 6 6 6 -19 61 -43
94 -10 13 -11 13 -9 0 6 -59 -3 -960 -10 -960 -4 0 -145 67 -312 148 -167 82
-339 166 -383 187 -48 23 -80 45 -83 56 -5 18 -23 27 -23 12 0 -5 -14 -9 -32
-10 -36 -3 -68 20 -68 50 0 18 44 67 98 109 20 16 22 26 22 125 l1 108 65 70
c101 109 114 124 204 225 47 52 91 99 98 103 6 4 12 13 12 20 0 7 16 25 35 40
19 15 35 32 35 38 0 6 20 31 45 57 25 25 45 50 45 54 0 4 7 8 15 8 8 0 15 6
15 13 0 6 24 37 53 68 28 30 75 81 102 112 l50 58 40 -16 c30 -11 33 -14 10
-9 -16 3 -34 6 -40 7 -6 1 -11 -84 -13 -245 -2 -237 -1 -249 18 -268 23 -23
25 -38 8 -77 -6 -15 -11 -31 -10 -35 1 -5 -4 -8 -11 -8 -15 -1 19 -21 41 -25
10 -1 16 -7 15 -13 -3 -13 65 -65 76 -58 5 3 15 -2 22 -12 13 -16 13 -16 -6
-2 -18 13 -19 13 -8 0 22 -29 98 -77 113 -73 11 3 12 2 3 -4 -9 -6 2 -20 37
-46 52 -39 66 -45 54 -24 -5 8 -2 7 9 -2 10 -8 15 -16 12 -19 -6 -7 14 -32 26
-32 5 0 9 176 9 398 l0 397 -60 19 c-38 12 -56 22 -48 27 7 4 15 4 18 0 3 -4
41 -20 85 -35 44 -15 82 -31 85 -35 3 -5 51 -23 107 -41 75 -24 100 -37 93
-45 -6 -7 -11 -186 -13 -451 l-2 -439 -3 450 -2 451 -33 12 c-18 7 -39 12 -45
12 -9 0 -13 -107 -15 -417 l-2 -418 0 421 0 422 -52 16 c-29 10 -53 21 -53 25
0 5 -11 11 -25 13 l-25 5 -2 -399 c-3 -417 -3 -416 39 -422 10 -2 18 -8 18
-13 0 -17 246 -204 258 -196 6 3 7 1 3 -5 -8 -13 28 -35 39 -24 5 4 5 2 1 -5
-7 -14 47 -56 59 -45 5 4 5 2 2 -4 -3 -6 26 -35 66 -65 40 -30 74 -56 77 -59
14 -14 90 -70 94 -70 3 0 6 236 6 524 0 456 2 525 15 530 8 3 15 2 15 -2 0 -4
35 -18 77 -32 42 -14 81 -30 87 -35 6 -6 56 -26 111 -44 55 -17 102 -36 105
-40 3 -4 31 -17 64 -28 l58 -21 62 21 c33 12 63 25 66 29 3 3 4 -133 3 -303
-2 -170 -4 -448 -5 -618 -3 -290 -2 -307 14 -297 17 10 18 51 15 621 l-2 611
73 23 c39 12 72 27 72 31 0 5 6 7 13 5 9 -4 11 -126 9 -575 -1 -314 1 -570 5
-570 5 0 16 7 26 14 16 12 17 52 17 579 0 499 -2 566 -15 561 -8 -4 -15 -4
-15 -1 0 3 37 18 83 33 45 15 84 31 87 35 3 4 12 4 19 0 10 -6 5 -11 -18 -16
l-31 -7 0 -538 c0 -296 -3 -541 -7 -543 -5 -3 -7 238 -5 535 l2 539 -22 -7
c-13 -3 -33 -10 -45 -15 l-23 -9 0 -561 c0 -448 3 -559 13 -552 124 97 172
138 169 145 -1 5 1 7 6 4 11 -6 213 149 207 158 -3 3 -2 4 1 1 10 -7 164 116
158 126 -3 5 1 6 9 3 36 -13 38 14 37 462 0 293 -4 440 -11 445 -6 3 24 18 66
33 42 15 79 26 81 23 2 -2 -13 -9 -33 -16 l-38 -13 3 -421 c1 -231 -1 -424 -5
-428 -5 -5 -7 183 -5 416 1 234 -1 425 -5 425 -5 0 -17 -3 -28 -6 -20 -5 -20
-12 -17 -445 1 -241 5 -439 8 -439 14 0 253 194 251 204 -1 6 4 10 11 8 8 -1
31 11 53 28 l39 31 -3 379 -2 379 40 15 c22 8 58 20 80 27 22 6 43 16 46 22 4
5 9 5 13 -2 4 -6 4 -11 -1 -11 -4 0 -7 -151 -5 -335 1 -184 6 -335 11 -335 12
0 32 26 25 32 -3 3 0 9 7 14 8 5 10 3 4 -6 -5 -9 -4 -11 3 -6 9 5 12 99 12
337 l0 330 -22 -6 c-18 -5 -20 -4 -8 4 8 6 24 11 36 11 37 0 111 -30 134 -56
l23 -24 339 0 c294 0 338 -2 338 -15 0 -13 -43 -15 -326 -15 l-325 0 43 -46
c24 -25 45 -50 46 -55 2 -5 137 -9 323 -9 277 0 319 -2 319 -15 0 -13 -41 -15
-307 -15 l-308 0 30 -25 30 -24 302 -1 c265 0 302 -2 297 -15 -5 -13 -48 -15
-298 -16 -160 0 -284 -3 -276 -6 8 -4 20 -12 25 -20 8 -11 67 -14 300 -16 266
-2 290 -3 293 -19 3 -16 -17 -18 -273 -20 l-277 -3 28 -25 c15 -14 24 -19 20
-12 -11 19 520 17 540 -2 33 -34 17 -36 -253 -36 -188 0 -264 -3 -256 -11 7
-7 101 -10 276 -9 255 1 266 0 276 -19 6 -11 11 -24 11 -30 0 -8 -80 -11 -251
-11 -164 0 -248 -3 -244 -10 4 -6 103 -10 265 -10 246 0 260 -1 270 -19 27
-52 29 -52 -229 -49 -132 2 -237 0 -234 -4 7 -13 477 -10 490 3 8 8 1 27 -23
67 -18 31 -38 63 -44 70 -6 6 -7 12 -3 12 4 0 3 4 -3 8 -6 4 -26 34 -43 67
-18 33 -52 94 -75 135 -24 41 -62 109 -86 150 -23 41 -61 107 -83 145 -22 39
-55 97 -74 130 -19 33 -44 76 -55 95 -21 36 -71 122 -141 245 -22 39 -55 95
-73 127 -19 31 -34 61 -34 67 0 9 103 69 120 70 3 1 23 -30 44 -67z m106 -517
c0 -13 -34 -15 -250 -15 -216 0 -250 2 -250 15 0 13 34 15 250 15 216 0 250
-2 250 -15z m50 -80 c0 -13 -39 -15 -290 -15 -251 0 -290 2 -290 15 0 13 39
15 290 15 251 0 290 -2 290 -15z m40 -80 c0 -13 -43 -15 -330 -15 -287 0 -330
2 -330 15 0 13 43 15 330 15 287 0 330 -2 330 -15z m-3795 -44 c39 -13 77 -28
85 -33 16 -10 15 -10 -37 6 l-23 7 -3 -353 -2 -353 -3 356 -2 357 -60 18 c-37
11 -55 21 -48 25 7 5 15 5 18 1 3 -4 37 -18 75 -31z m2729 -66 c-16 -6 -57
-20 -91 -31 -35 -10 -63 -22 -63 -26 0 -5 -4 -8 -10 -8 -5 0 -10 4 -10 9 0 6
38 22 85 36 47 15 85 31 85 36 0 4 7 6 16 2 12 -5 10 -9 -12 -18z m-354 -134
c0 -5 -13 -12 -30 -16 l-30 -7 0 -458 c0 -252 -3 -461 -7 -463 -5 -3 -7 201
-5 454 1 252 1 459 -1 459 -1 0 -29 -9 -61 -20 -32 -12 -60 -19 -63 -17 -2 2
35 17 82 33 47 15 85 32 85 36 0 4 7 8 15 8 8 0 15 -4 15 -9z m-1760 -41 c47
-16 79 -29 73 -29 -13 -1 -165 48 -172 55 -10 9 18 2 99 -26z m90 -525 l-5
-490 -3 486 c-1 267 1 489 5 492 3 4 7 6 7 5 1 -2 -1 -223 -4 -493z m1455 485
c3 -5 1 -10 -4 -10 -6 0 -11 5 -11 10 0 6 2 10 4 10 3 0 8 -4 11 -10z m-1359
-32 c35 -12 62 -24 60 -26 -4 -4 -126 36 -135 44 -10 9 15 3 75 -18z m1322 15
c-17 -4 -18 -38 -20 -506 l-3 -502 -5 497 -5 496 -55 -19 c-30 -10 -58 -18
-63 -16 -10 3 133 55 153 55 10 0 9 -2 -2 -5z m-2189 -508 c0 -5 -6 1 -14 15
-8 14 -14 30 -14 35 0 6 6 -1 14 -15 8 -14 14 -29 14 -35z m380 -665 c11 -24
11 -24 -3 -6 -9 11 -16 24 -16 30 0 12 5 7 19 -24z m65 -106 c3 -8 2 -12 -4
-9 -6 3 -10 10 -10 16 0 14 7 11 14 -7z m-416 -51 c34 -14 61 -28 59 -30 -2
-2 -35 10 -73 26 -38 17 -64 30 -59 31 6 0 38 -12 73 -27z m441 -3 c11 -24 11
-24 -3 -6 -9 11 -16 24 -16 30 0 12 5 7 19 -24z m2516 5 c-27 -13 -54 -24 -60
-24 -5 1 13 11 40 24 28 13 55 24 60 24 6 -1 -12 -11 -40 -24z m-510 -84 c-21
-43 -29 -39 -8 4 9 19 18 33 21 31 2 -2 -4 -18 -13 -35z m370 14 c-27 -13 -54
-24 -60 -24 -5 1 13 11 40 24 28 13 55 24 60 24 6 -1 -12 -11 -40 -24z m-2645
-16 c52 -27 23 -22 -35 7 -27 13 -39 21 -25 18 14 -4 41 -15 60 -25z m153 -75
c29 -13 41 -22 29 -18 -13 3 -47 17 -75 30 -29 13 -41 22 -29 18 13 -3 47 -17
75 -30z m2302 1 c-27 -13 -54 -24 -60 -24 -5 1 13 11 40 24 28 13 55 24 60 24
6 -1 -12 -11 -40 -24z m-2150 -75 c33 -15 56 -28 50 -29 -5 0 -37 13 -70 29
-33 15 -55 28 -50 29 6 0 37 -13 70 -29z m2010 5 c-27 -13 -54 -24 -60 -24 -5
1 13 11 40 24 28 13 55 24 60 24 6 -1 -12 -11 -40 -24z m-4120 -835 c3 -5 4
-13 2 -17 -3 -5 -161 -7 -351 -5 -297 2 -346 5 -346 17 0 13 48 15 344 15 219
0 347 -4 351 -10z m33 -115 c7 -25 12 -51 12 -58 0 -17 -641 -12 -652 6 -23
36 -16 37 313 37 252 0 320 3 317 13 -4 9 -82 13 -336 15 -286 2 -332 4 -332
17 0 13 45 15 333 15 l333 0 12 -45z m29 -125 c1 -14 0 -19 -3 -12 -5 10 -73
12 -312 12 -272 -1 -307 1 -310 15 -3 14 29 15 310 13 l313 -3 2 -25z m31 -70
c2 -13 -36 -15 -306 -12 -265 2 -309 5 -309 17 0 23 610 18 615 -5z m20 -80
c2 -13 -35 -15 -293 -12 -253 2 -295 5 -295 17 0 23 583 18 588 -5z m20 -77
c3 -10 -57 -13 -277 -13 -244 0 -281 2 -281 15 0 13 35 15 277 13 210 -2 277
-6 281 -15z m82 -298 c0 -13 -33 -15 -235 -15 -202 0 -235 2 -235 15 0 13 33
15 235 15 202 0 235 -2 235 -15z m30 -80 c0 -13 -32 -15 -230 -15 -200 0 -229
2 -224 15 5 13 40 15 230 15 192 0 224 -2 224 -15z m845 -644 c91 -83 84 -80
150 -72 47 5 69 3 103 -11 24 -10 46 -18 48 -18 2 0 4 20 4 45 0 32 4 45 14
45 7 0 26 7 42 14 15 8 31 13 36 10 4 -3 8 -45 8 -95 0 -82 1 -89 20 -89 17 0
20 -7 20 -50 0 -31 -9 -69 -24 -102 -14 -29 -31 -69 -39 -88 -21 -49 -41 -261
-32 -345 3 -38 9 -173 11 -300 4 -209 3 -231 -13 -242 -23 -18 -78 -16 -93 2
-7 8 -16 13 -20 10 -4 -3 -10 1 -13 9 -3 7 -26 23 -52 35 -25 12 -49 29 -52
39 -4 9 -17 25 -29 35 -13 10 -26 26 -29 36 -8 27 -78 61 -126 61 -27 0 -51 8
-72 24 -18 13 -48 31 -67 41 -37 18 -96 75 -92 88 1 4 -2 7 -7 7 -18 0 -50 71
-61 132 -6 35 -15 72 -20 83 -10 22 -23 84 -46 215 -8 46 -20 88 -27 92 -14 9
-17 193 -3 223 6 11 19 67 31 125 l21 105 114 10 c109 9 119 9 185 -14 44 -15
85 -37 110 -60z m3615 -71 c0 -38 -3 -70 -7 -70 -5 0 -7 31 -5 70 2 38 6 70 8
70 2 0 4 -31 4 -70z"/>
<path d="M8203 9397 l-63 -21 -2 -373 c-2 -205 -2 -373 0 -373 2 0 38 27 80
59 l77 60 -3 335 c-2 257 -5 336 -15 335 -6 0 -40 -10 -74 -22z"/>
<path d="M6260 8511 l0 -530 23 -13 c12 -7 26 -11 30 -10 5 1 6 -2 2 -7 -3 -6
4 -15 15 -21 20 -11 20 -10 20 535 l0 545 -22 9 c-13 5 -33 11 -45 15 l-23 7
0 -530z"/>
<path d="M6360 8456 l1 -551 47 -35 c26 -19 56 -43 66 -52 11 -10 23 -18 28
-18 4 0 8 258 8 574 0 606 1 586 -41 586 -5 0 -10 -231 -12 -557 l-2 -558 -3
562 c-1 436 -5 564 -14 570 -7 4 -28 13 -45 19 l-33 12 0 -552z"/>
<path d="M7073 8953 c-17 -6 -19 -1153 -3 -1153 6 0 13 6 15 13 3 6 4 267 3
578 -2 447 -6 565 -15 562z"/>
<path d="M6520 8362 c0 -575 1 -602 32 -602 4 0 8 263 8 584 0 523 -2 584 -16
590 -9 3 -18 6 -20 6 -2 0 -4 -260 -4 -578z"/>
<path d="M7013 8933 c-10 -4 -13 -132 -13 -595 l0 -589 28 19 27 20 -3 576
c-2 593 -2 585 -39 569z"/>
<path d="M6570 8337 l0 -595 23 -14 22 -15 -3 598 c-2 585 -3 599 -22 609 -20
11 -20 6 -20 -583z"/>
<path d="M6963 8913 c-10 -4 -13 -134 -13 -604 0 -597 0 -599 20 -587 20 13
20 24 20 605 0 326 -3 593 -7 592 -5 0 -14 -3 -20 -6z"/>
<path d="M6630 8302 c0 -533 2 -611 15 -616 13 -5 15 65 15 595 0 520 -2 602
-15 615 -13 14 -15 -52 -15 -594z"/>
<path d="M6670 8272 c0 -596 0 -607 20 -620 20 -12 20 -10 20 602 0 551 -2
614 -16 620 -9 3 -18 6 -20 6 -2 0 -4 -273 -4 -608z"/>
<path d="M6863 8873 c-10 -4 -13 -138 -13 -626 0 -554 2 -620 15 -606 13 13
15 92 13 625 -2 483 -6 610 -15 607z"/>
<path d="M6732 8238 c2 -482 6 -622 15 -625 10 -4 13 129 15 616 3 624 3 631
-28 631 -2 0 -3 -280 -2 -622z"/>
<path d="M6815 8848 c-8 -22 -10 -1248 -3 -1248 4 0 9 284 10 630 2 347 2 630
0 630 -1 0 -5 -6 -7 -12z"/>
<path d="M9530 8801 c0 -5 7 -16 15 -25 8 -8 15 -22 15 -30 0 -9 4 -16 9 -16
5 0 15 -16 22 -35 7 -19 19 -35 27 -35 12 0 11 4 -2 23 -9 12 -28 46 -43 75
-25 48 -43 66 -43 43z"/>
<path d="M9628 8638 c34 -34 17 -38 -193 -38 -159 0 -203 -3 -200 -12 4 -10
55 -12 220 -10 l214 3 -16 34 c-9 19 -21 35 -27 35 -6 0 -5 -5 2 -12z"/>
<path d="M9676 8548 l6 -28 -197 0 c-128 0 -194 -3 -190 -10 4 -6 87 -10 218
-9 117 0 206 3 199 6 -6 2 -10 8 -8 12 3 3 -4 18 -15 31 l-20 25 7 -27z"/>
<path d="M9726 8470 c7 -28 12 -35 18 -29 2 2 -2 15 -10 29 l-15 25 7 -25z"/>
<path d="M8145 8409 c-9 -17 -15 -33 -13 -35 3 -2 12 12 21 31 21 43 13 47 -8
4z"/>
<path d="M9760 8400 c0 -5 5 -10 10 -10 6 0 10 -7 10 -15 0 -8 4 -15 10 -15 6
0 5 10 -2 25 -11 25 -28 34 -28 15z"/>
<path d="M9810 8321 c0 -6 4 -13 10 -16 6 -3 7 1 4 9 -7 18 -14 21 -14 7z"/>
<path d="M9860 8241 c0 -6 4 -13 10 -16 6 -3 7 1 4 9 -7 18 -14 21 -14 7z"/>
<path d="M9900 8161 c0 -6 4 -13 10 -16 6 -3 7 1 4 9 -7 18 -14 21 -14 7z"/>
<path d="M9950 8081 c0 -6 4 -13 10 -16 6 -3 7 1 4 9 -7 18 -14 21 -14 7z"/>
<path d="M3915 4748 l7 -28 -581 0 c-381 0 -581 -3 -581 -10 0 -7 205 -10 594
-10 l594 0 6 -22 c3 -13 6 -26 6 -30 0 -5 -270 -8 -600 -8 -390 0 -600 -3
-600 -10 0 -6 217 -11 618 -12 541 -3 617 -5 617 -18 0 -13 -76 -15 -617 -18
-610 -2 -618 -2 -618 -22 0 -20 7 -20 640 -20 633 0 640 0 640 -20 0 -20 -7
-20 -640 -20 -420 0 -640 -3 -640 -10 0 -7 225 -10 655 -10 637 0 655 -1 665
-19 5 -11 10 -24 10 -30 0 -8 -201 -11 -665 -11 -437 0 -665 -3 -665 -10 0 -7
235 -10 686 -10 l686 0 -18 28 c-17 25 -54 90 -146 257 -46 83 -62 102 -53 63z"/>
<path d="M4128 4378 c38 -38 37 -38 -678 -38 -453 0 -690 -3 -690 -10 0 -7
242 -10 706 -10 388 0 704 3 702 8 -23 46 -33 62 -42 62 -6 0 -5 -5 2 -12z"/>
<path d="M4176 4285 l6 -25 -713 -2 -714 -3 695 -3 c382 -1 709 0 727 3 30 5
31 7 21 30 -15 32 -30 32 -22 0z"/>
<path d="M4224 4217 c3 -10 6 -23 6 -28 0 -5 5 -9 10 -9 14 0 12 13 -6 36 -14
17 -15 17 -10 1z"/>
<path d="M4273 4125 c7 -14 15 -25 19 -25 4 0 2 11 -4 25 -6 14 -15 25 -19 25
-4 0 -2 -11 4 -25z"/>
<path d="M4310 4063 c0 -17 28 -48 36 -40 4 4 2 7 -4 7 -7 0 -12 6 -12 14 0 8
-4 18 -10 21 -5 3 -10 2 -10 -2z"/>
<path d="M4360 3981 c0 -6 4 -13 10 -16 6 -3 7 1 4 9 -7 18 -14 21 -14 7z"/>
<path d="M4400 3901 c0 -5 5 -13 10 -16 6 -3 10 -2 10 4 0 5 -4 13 -10 16 -5
3 -10 2 -10 -4z"/>
<path d="M4450 3815 c0 -8 4 -15 10 -15 5 0 7 7 4 15 -4 8 -8 15 -10 15 -2 0
-4 -7 -4 -15z"/>
<path d="M4500 3730 c0 -5 5 -10 11 -10 5 0 7 5 4 10 -3 6 -8 10 -11 10 -2 0
-4 -4 -4 -10z"/>
</g>
</svg>
